<svg version="1" xmlns="http://www.w3.org/2000/svg" width="1066.667" height="1066.667" viewBox="0 0 800.000000 800.000000"><path d="M0 400v400h800V0H0v400zm510.5-175.5c57.6 27.7 105.6 51.2 106.7 52.1 1.7 1.6 1.8 6.4 1.8 126.9 0 121.9 0 125.2-1.9 126.9-3.1 2.8-211.4 102.9-214.1 102.8-2.7 0-211.1-100.1-214.2-102.8-1.7-1.6-1.8-6.5-1.8-126.9 0-118.6.1-125.3 1.8-126.8 3.4-3.1 210.6-102.5 213.8-102.6 2.2-.1 34.5 15 107.9 50.4z"/><path d="M375.1 200.3c-15 7.2-27.2 13.6-27 14.2.5 1.3 192.1 93.6 193.5 93.3 2.4-.6 55.4-26.3 55.4-26.9 0-.6-193-93.9-194.1-93.9-.2 0-12.7 6-27.8 13.3zM311.3 231.3c-10.6 5-19.2 9.4-19.3 9.7 0 .3 43.6 21.6 96.9 47.3l97 46.6 20.3-9.8 20.3-9.8-7.5-3.5c-4.1-2-47.7-23-96.9-46.7-49.2-23.7-89.9-43.1-90.5-43.1-.6 0-9.7 4.2-20.3 9.3z"/><path d="M242.3 264.2c-18.3 8.9-33.3 16.4-33.3 16.7 0 .3 32.8 16.3 72.8 35.5 41.9 20.1 73.7 35.9 75 37.3 2.9 3.1 2.8 4.8-.4 7.9-1.8 1.9-3.2 2.4-4.8 2-1.9-.5-137.8-65.5-148.8-71.2l-2.8-1.5v231.6l97.6 47c53.7 25.9 98 47.1 98.5 47.3.5.2.9-49 .9-115.3V385.9l-8.7-4.1c-10.1-4.6-13.3-7.2-13.3-10.5 0-2.8 3.3-6.3 5.8-6.3 1 0 6.4 2.2 12 5l10.1 4.9 25-12.1c26.7-12.8 28.9-13.4 31.3-8.3.6 1.3.8 3.5.4 4.9-.6 2.6-4 4.5-39.3 21.2l-11.3 5.3v115c0 63.2.3 115.2.8 115.4.4.2 44.7-20.8 98.4-46.7l97.8-47.1V291.1l-22.7 11c-12.6 6.1-26.7 12.9-31.5 15.1l-8.8 4.1v42.2c0 39.1-.1 42.3-1.8 43.8-2.4 2.2-53.2 26.7-55.4 26.7-1 0-2.7-.9-3.8-2-1.9-1.9-2-3.3-2-43.8v-41.9l-101-48.7c-55.6-26.8-101.6-48.8-102.3-49.1-.6-.2-16.2 6.9-34.4 15.7zm12.2 199.3c16.5 8 30.6 15.1 31.3 15.9 3.7 3.7-.4 11.4-5.4 10.2-3.4-.9-60.7-28.6-62.6-30.3-3.8-3.4-1-10.3 4.1-10.3 1.5 0 16.1 6.5 32.6 14.5zM241 489.1c9 4.4 16.8 8.5 17.2 9.2 2.4 3.7-.6 9.7-4.8 9.7-2.5 0-32.9-14.2-35.6-16.7-3.8-3.4-1-10.3 4.1-10.3 1.4 0 10 3.6 19.1 8.1z"/><path d="M511.3 336.8l-18.3 8.7v35.8c0 19.7.3 35.7.8 35.4.4-.2 8.7-4.1 18.4-8.8l17.8-8.4v-35.8c0-19.6-.1-35.7-.2-35.7-.2 0-8.5 3.9-18.5 8.8z"/></svg>