<?xml version="1.0" standalone="no"?>
<!DOCTYPE svg PUBLIC "-//W3C//DTD SVG 20010904//EN"
 "http://www.w3.org/TR/2001/REC-SVG-20010904/DTD/svg10.dtd">
<svg version="1.0" xmlns="http://www.w3.org/2000/svg"
 width="260.000000pt" height="260.000000pt" viewBox="0 0 260.000000 260.000000"
 preserveAspectRatio="xMidYMid meet">
<metadata>
Created by potrace 1.14, written by Peter Selinger 2001-2017
</metadata>
<g transform="translate(0.000000,260.000000) scale(0.100000,-0.100000)"
fill="#000000" stroke="none">
<path d="M1270 2443 c-8 -4 -172 -95 -365 -203 -456 -256 -422 -237 -638 -357
-103 -58 -194 -114 -202 -126 -20 -28 -19 -60 3 -85 24 -29 1201 -615 1233
-614 19 0 880 421 1174 574 76 39 95 85 53 131 -28 31 -1201 687 -1225 686
-10 0 -25 -3 -33 -6z m153 -227 c61 -35 135 -76 162 -91 28 -16 120 -67 205
-115 85 -48 235 -131 332 -186 98 -54 178 -101 178 -104 0 -3 -225 -117 -501
-254 l-501 -248 -499 248 c-274 137 -499 252 -499 255 0 3 10 11 23 17 12 6
49 26 82 45 33 19 152 86 265 149 113 63 228 127 255 143 28 15 75 42 105 58
30 17 100 57 155 88 55 32 106 58 113 58 6 1 63 -28 125 -63z"/>
<path d="M150 1371 c-41 -21 -81 -49 -89 -63 -13 -23 -11 -58 6 -85 11 -15
1211 -613 1232 -613 9 0 279 131 599 290 321 160 587 290 592 290 16 0 60 62
60 84 0 12 -9 32 -21 44 -30 33 -150 90 -179 85 -49 -7 -69 -47 -58 -116 2
-14 -93 -66 -494 -265 l-497 -247 -499 247 -500 248 13 37 c11 31 11 42 -1 64
-26 51 -64 51 -164 0z"/>
<path d="M2315 950 c-49 -19 -64 -82 -30 -119 17 -20 9 -24 -484 -270 l-502
-249 -500 249 -500 249 14 27 c7 16 12 34 11 41 -1 6 -2 16 -3 22 -2 18 -45
50 -68 50 -23 0 -141 -56 -176 -84 -23 -18 -32 -76 -14 -98 7 -9 285 -152 617
-318 521 -261 608 -301 634 -295 17 3 298 140 625 303 528 264 595 300 604
325 16 50 -6 81 -91 125 -92 47 -111 53 -137 42z"/>
</g>
</svg>
