<svg xmlns="http://www.w3.org/2000/svg" width="512" height="512" fill="#fff" xmlns:v="https://vecta.io/nano"><path d="M491.73 112.97L259.26.745a7.5 7.5 0 0 0-6.52 0L20.27 112.97a7.5 7.5 0 0 0-4.239 6.754v272.55a7.5 7.5 0 0 0 4.239 6.754l232.47 112.226c1.03.497 2.146.746 3.26.746s2.23-.25 3.26-.746l232.47-112.226a7.5 7.5 0 0 0 4.239-6.754V119.726a7.5 7.5 0 0 0-4.239-6.755zM256 15.828l215.217 103.897-62.387 30.118c-.395-.3-.812-.58-1.27-.8l-213.755-103.2L256 15.828zm-79.133 38.505L391.77 158.08l-44.015 21.25L132.94 75.624l43.926-21.3zM396.8 172.307v78.546L355.686 270.7v-78.546l41.113-19.848zm84.17 215.26L263.5 492.55V236.658l51.873-25.042a7.5 7.5 0 1 0-6.522-13.508L256 223.623l-20.796-10.04a7.5 7.5 0 1 0-6.522 13.508l19.818 9.567V492.55L31.032 387.566V131.674l165.6 79.945a7.46 7.46 0 0 0 3.255.748 7.5 7.5 0 0 0 3.266-14.256l-162.37-78.386 74.505-35.968 225.398 108.895v90a7.5 7.5 0 0 0 7.501 7.5 7.49 7.49 0 0 0 3.26-.746l56.113-27.1a7.5 7.5 0 0 0 4.239-6.754v-90.495l69.17-33.392v255.893zM92.926 358.48L58.8 342a7.5 7.5 0 0 0-6.522 13.508l34.115 16.47a7.46 7.46 0 0 0 3.255.748 7.5 7.5 0 0 0 3.267-14.256zm31.397-20.438l-65.465-31.604a7.5 7.5 0 0 0-10.015 3.494c-1.8 3.73-.236 8.214 3.494 10.015l65.465 31.604c1.05.507 2.162.748 3.255.748a7.5 7.5 0 0 0 6.759-4.241c1.8-3.732.237-8.216-3.493-10.016z"/></svg>