<svg xmlns="http://www.w3.org/2000/svg" width="512" height="512" fill="#fff" xmlns:v="https://vecta.io/nano"><path d="M156 370.002c-5.52 0-10 4.48-10 10s4.48 10 10 10 10-4.48 10-10-4.48-10-10-10zM450.143 190l58.93-58.93a10 10 0 0 0-4.122-16.626l-143.5-44.3C348.514 28.575 310.066.002 266 .002c-40.964 0-77.6 24.965-92.763 62.625L7.022 114.455a10 10 0 0 0-4.094 16.618l60.48 60.48-38.144 63.575a10 10 0 0 0 5.413 14.632L86 288.2V442a10 10 0 0 0 6.489 9.363l160.187 60.06c1.984.7 4.22.794 6.398.1.03-.01.06-.016.088-.026l180-60A10 10 0 0 0 446 442V284.08l58.998-18.54a10 10 0 0 0 6.715-7.158 10.01 10.01 0 0 0-2.64-9.453L450.143 190zM366 100a100.86 100.86 0 0 0-.298-7.603l117.494 36.265-49.897 49.896-81.528-27.173C361.002 135.955 366 118.148 366 100zM190.326 73.974c11.1-32.282 41.512-53.972 75.673-53.972 36.8 0 68.72 24.892 77.618 60.532 1.58 6.333 2.382 12.883 2.382 19.468 0 18.574-6.164 35.983-17.828 50.352-15.277 18.842-37.938 29.648-62.172 29.648-26.196 0-50.767-12.858-65.733-34.404C190.933 132.192 186 116.424 186 100.002c0-8.93 1.455-17.688 4.327-26.028zm-161.562 54.65l138.3-43.124C166.37 90.28 166 95.12 166 100c0 16.1 3.814 31.696 11.084 45.767L78.7 178.56l-49.936-49.935zm20.063 126.102l31.62-52.702L241 255.546l-31.62 52.702-160.564-53.52zM246 487.572l-140-52.5V294.866l107.838 35.407c3.438 0 6.73-1.78 8.577-4.856L246 286.106v201.466zm10-248.1l-148.376-49.458 80.794-26.93c18.9 23.247 47.377 36.93 77.582 36.93 27.942 0 54.203-11.5 73.092-31.76l65.284 21.76L256 239.46zm170 195.333l-160 53.333v-209.62l35.45 44.3a10 10 0 0 0 10.807 3.293L426 290.367v144.427zM312.8 304.98l-40.024-50.026 160.53-53.5 49.964 49.964L312.8 305zm-93.28 87.218l-22.24-8.34c-5.17-1.938-10.935.68-12.875 5.852a10 10 0 0 0 5.852 12.875l22.24 8.34a10.01 10.01 0 0 0 12.875-5.852 10 10 0 0 0-5.852-12.875zm-.01 42.72l-60-22.5c-5.17-1.94-10.935.68-12.875 5.852a10 10 0 0 0 5.852 12.875l60 22.5a9.96 9.96 0 0 0 3.5.64c4.05 0 7.86-2.477 9.365-6.492a10 10 0 0 0-5.852-12.875zM323.07 62.93c-3.905-3.906-10.237-3.905-14.143 0L256 115.86l-12.93-12.93c-3.905-3.905-10.237-3.905-14.143 0s-3.905 10.237 0 14.143l20 20c3.905 3.905 10.237 3.905 14.143 0l60-60c3.905-3.905 3.905-10.237 0-14.143z"/></svg>